<svg width="244" height="47" viewBox="0 0 244 47" fill="none" xmlns="http://www.w3.org/2000/svg">
<path d="M105.528 24.2783C105.528 23.2994 105.483 22.5189 105.392 21.9368C105.302 21.3547 105.146 20.9106 104.924 20.6044C104.702 20.2983 104.406 20.0999 104.034 20.0073C103.709 19.9279 103.311 19.8825 102.841 19.8712C102.724 19.8693 102.631 19.7748 102.631 19.6576C102.631 19.5367 102.726 19.4403 102.843 19.4403H108.153C108.27 19.4403 108.365 19.5367 108.365 19.6557V19.6595C108.365 19.7729 108.278 19.8693 108.164 19.8731C107.732 19.8901 107.376 19.96 107.096 20.0847C106.776 20.2265 106.528 20.4514 106.359 20.7575C106.187 21.0637 106.075 21.4568 106.025 21.9368C105.975 22.4168 105.951 22.9932 105.951 23.666C105.951 24.5032 105.91 25.2478 105.83 25.9017C105.751 26.5329 105.645 27.1112 105.511 27.6366L105.135 27.5421C105.163 27.4343 105.189 27.3247 105.211 27.217C105.422 26.2381 105.528 25.2572 105.528 24.2783Z" fill="black"/>
<path d="M98.163 34.5042C98.7964 34.5042 99.3963 34.3663 99.9608 34.0941L100.412 34.3625C100.304 34.4211 100.194 34.4778 100.08 34.5345C99.6273 34.7594 99.1299 34.9484 98.5859 35.1014C98.0419 35.2545 97.4587 35.3301 96.8365 35.3301C95.5677 35.3301 94.5001 35.0806 93.6357 34.5798C92.7712 34.0809 92.0707 33.4781 91.5378 32.775C91.005 32.0701 90.6287 31.3255 90.4069 30.5394C90.1852 29.7532 90.0753 29.0842 90.0753 28.5342C90.0753 27.4721 90.2598 26.5442 90.6324 25.7486C91.005 24.9511 91.4782 24.2537 92.0521 23.6509C92.6259 23.0499 93.2537 22.5226 93.9375 22.0747C94.3325 21.8158 94.72 21.5702 95.1019 21.3396L95.292 21.6628C94.6194 22.0955 94.0567 22.5756 93.6059 23.099C92.9817 23.8247 92.6706 24.7791 92.6706 25.9622C92.6706 26.8806 92.8308 27.8444 93.1531 28.8555C93.4754 29.8666 93.8965 30.7888 94.42 31.626C94.9436 32.4632 95.5323 33.153 96.1862 33.6935C96.8402 34.234 97.4997 34.5042 98.163 34.5042Z" fill="black"/>
<path d="M100.864 13.8691C100.533 13.3381 99.9645 13.0735 99.1597 13.0735C98.6362 13.0735 98.1778 13.3079 97.7866 13.7765C97.3935 14.2471 97.1979 14.8386 97.1979 15.553C97.1979 16.084 97.3432 16.7171 97.6357 17.4504C97.8779 18.0627 98.1462 18.675 98.4368 19.2873C98.5337 19.4876 98.7815 19.5576 98.9678 19.4404C99.1895 19.3024 99.4093 19.1607 99.6273 19.0133C99.9589 18.7884 100.251 18.5219 100.503 18.2158C100.754 17.9096 100.959 17.5543 101.122 17.1442C101.282 16.7379 101.362 16.2579 101.362 15.7061C101.362 15.0125 101.196 14.4002 100.864 13.8691ZM100.412 34.3626L99.9608 34.0942C100.043 34.0545 100.121 34.013 100.201 33.9676L100.22 33.9582C101.28 33.3591 101.677 32.0135 101.116 30.9231L96.5327 22.0068C96.2961 21.5476 95.7223 21.385 95.2919 21.6629L95.1019 21.3397C95.3236 21.2036 95.5434 21.0732 95.7595 20.9485C95.8564 20.8918 95.8918 20.7727 95.8434 20.6707C95.6515 20.2625 95.4577 19.7976 95.2658 19.2722C95.0441 18.6712 94.9342 17.9418 94.9342 17.0838C94.9342 16.3902 95.0553 15.7722 95.2956 15.2317C95.5378 14.6912 95.849 14.2263 96.2309 13.8389C96.6128 13.4515 97.0507 13.1548 97.5444 12.9507C98.0381 12.7466 98.5356 12.6445 99.0386 12.6445C99.8024 12.6445 100.453 12.8902 100.986 13.3797C101.518 13.8691 101.785 14.6345 101.785 15.6758C101.785 16.2881 101.69 16.823 101.498 17.2822C101.308 17.7414 101.066 18.1459 100.775 18.4917C100.482 18.8394 100.155 19.1342 99.7931 19.3799C99.4969 19.5803 99.2118 19.7617 98.9417 19.9204C98.8448 19.979 98.8094 20.1037 98.8616 20.2058L103.84 29.8383C103.918 29.9914 104.132 29.9914 104.214 29.8402C104.632 29.0673 104.939 28.3038 105.135 27.5422L105.511 27.6366C105.507 27.6555 105.502 27.6726 105.498 27.6914C105.356 28.2338 105.176 28.7441 104.954 29.2222C104.796 29.5643 104.628 29.9045 104.451 30.2408C104.315 30.496 104.313 30.804 104.453 31.0591C104.885 31.8453 105.274 32.4784 105.619 32.9584C106.021 33.5197 106.483 33.7994 107.007 33.7994C107.329 33.7994 107.585 33.7087 107.776 33.5235C107.968 33.3402 108.114 33.1058 108.214 32.8205C108.315 32.5351 108.386 32.2233 108.425 31.8869C108.456 31.6223 108.477 31.3596 108.483 31.1007C108.486 30.9854 108.578 30.891 108.693 30.891C108.809 30.891 108.905 30.9873 108.905 31.1026V31.1102C108.889 31.8699 108.779 32.5068 108.576 33.0189C108.354 33.5802 108.078 34.0338 107.747 34.3815C107.415 34.7292 107.037 34.973 106.614 35.1166C106.191 35.2584 105.789 35.3302 105.407 35.3302C104.984 35.3302 104.622 35.2848 104.32 35.1922C104.019 35.1015 103.752 34.9579 103.521 34.7651C103.288 34.5705 103.072 34.3305 102.871 34.0451C102.709 33.8145 102.534 33.5518 102.346 33.2551C102.275 33.1436 102.124 33.1191 102.027 33.2098C101.82 33.4007 101.58 33.5972 101.302 33.7994C101.03 33.9997 100.734 34.1868 100.412 34.3626Z" fill="black"/>
<path d="M243.97 16.3486C243.97 17.4919 243.715 18.2535 243.202 18.6353C242.69 19.017 242.092 19.206 241.408 19.206C239.905 19.206 239.154 18.7222 239.154 17.7508C239.154 17.439 239.187 17.1895 239.256 16.9987C239.325 16.8078 239.402 16.6169 239.487 16.4261C239.573 16.2371 239.649 16.0197 239.718 15.7759C239.785 15.534 239.821 15.1882 239.821 14.7365C239.821 13.6291 239.223 13.0735 238.027 13.0735C237.481 13.0735 236.899 13.2814 236.285 13.6971C235.67 14.1129 235.098 14.7195 234.569 15.517C234.04 16.3145 233.596 17.2765 233.237 18.4009C232.879 19.5273 232.698 20.818 232.698 22.2732V33.8107C232.698 34.011 232.86 34.1736 233.058 34.1736H236.797C236.996 34.1736 237.157 34.338 237.157 34.5383C237.157 34.6385 237.117 34.7292 237.052 34.7953C236.987 34.8615 236.898 34.9011 236.797 34.9011H224.706C224.508 34.9011 224.348 34.7386 224.348 34.5383C224.348 34.4381 224.389 34.3474 224.452 34.2813C224.517 34.2151 224.607 34.1736 224.706 34.1736H227.934C228.132 34.1736 228.292 34.011 228.292 33.8107V13.6971C228.292 13.4968 228.132 13.3343 227.934 13.3343H224.706C224.508 13.3343 224.348 13.1717 224.348 12.9695C224.348 12.8694 224.389 12.7787 224.452 12.7125C224.517 12.6483 224.607 12.6067 224.706 12.6067H232.238C232.435 12.6067 232.596 12.7692 232.596 12.9695V17.3067C232.596 17.4277 232.758 17.4617 232.804 17.3502C232.963 16.9741 233.183 16.462 233.365 16.0878C233.682 15.4358 234.099 14.7989 234.645 14.1923C235.191 13.5856 235.851 13.0735 236.618 12.6577C237.388 12.2419 238.317 12.0341 239.411 12.0341C240.195 12.0341 240.879 12.1645 241.46 12.4253C242.04 12.6842 242.519 13.0149 242.895 13.4118C243.269 13.8105 243.543 14.2697 243.715 14.7894C243.884 15.3092 243.97 15.8289 243.97 16.3486Z" fill="black"/>
<path d="M223.116 19.8581C223.291 20.9901 222.42 22.0125 221.29 22.0125H208.467C207.932 22.0125 207.492 22.4415 207.47 22.9858C207.468 23.016 207.466 23.0481 207.466 23.0784C207.448 23.4431 207.44 23.9023 207.44 24.456C207.44 25.5994 207.507 26.7938 207.645 28.0411C207.781 29.2884 208.081 30.4147 208.541 31.4201C209.003 32.4255 209.685 33.257 210.591 33.9147C211.496 34.5724 212.7 34.9012 214.203 34.9012C215.707 34.9012 216.944 34.6763 217.918 34.2265C218.891 33.7768 219.66 33.2306 220.223 32.5899C220.787 31.9493 221.205 31.2992 221.479 30.6396C221.685 30.1426 221.851 29.7155 221.98 29.3564C222.047 29.1693 222.239 29.0578 222.431 29.0975C222.621 29.1353 222.749 29.3054 222.749 29.4906C222.749 29.5322 222.744 29.5756 222.729 29.6172C222.619 29.946 222.466 30.3467 222.272 30.8229C221.982 31.5335 221.522 32.2441 220.89 32.9528C220.256 33.6634 219.403 34.287 218.328 34.8237C217.251 35.3604 215.86 35.6288 214.151 35.6288C212.443 35.6288 210.865 35.351 209.413 34.7973C207.96 34.2435 206.704 33.446 205.646 32.4066C204.588 31.3672 203.768 30.1294 203.187 28.6912C202.606 27.2549 202.317 25.6504 202.317 23.8834C202.317 22.3602 202.615 20.8786 203.213 19.4404C203.811 18.0041 204.631 16.7304 205.672 15.621C206.714 14.5117 207.934 13.6197 209.335 12.945C210.736 12.2685 212.24 11.9302 213.844 11.9302C214.801 11.9302 215.826 12.104 216.918 12.4499C218.011 12.7976 219.027 13.3608 219.968 14.1394C220.907 14.9199 221.691 15.9499 222.325 17.2312C222.701 17.9966 222.965 18.8716 223.116 19.8581ZM218.147 19.9337V18.6353C218.147 17.458 218.038 16.4866 217.816 15.725C217.592 14.9634 217.285 14.3567 216.894 13.9051C216.501 13.4553 216.022 13.1359 215.459 12.945C214.895 12.7541 214.289 12.6578 213.639 12.6578C212.478 12.6578 211.52 12.8921 210.77 13.3608C210.019 13.8276 209.421 14.4607 208.977 15.2563C208.532 16.0538 208.2 16.9723 207.979 18.0117C207.854 18.59 207.755 19.1853 207.679 19.7976C207.58 20.5857 208.178 21.2849 208.962 21.2849H217.276C217.723 21.2849 218.099 20.9372 218.129 20.4836C218.142 20.2946 218.147 20.1113 218.147 19.9337Z" fill="black"/>
<path d="M202.574 34.1736C202.771 34.1736 202.932 34.338 202.932 34.5383C202.932 34.6385 202.892 34.7292 202.827 34.7953C202.762 34.8615 202.673 34.9011 202.574 34.9011H190.995C190.795 34.9011 190.635 34.7386 190.635 34.5383C190.635 34.4381 190.674 34.3474 190.74 34.2813C190.805 34.2151 190.894 34.1736 190.995 34.1736H194.222C194.421 34.1736 194.581 34.011 194.581 33.8107V17.388C194.581 16.0367 194.265 14.9274 193.633 14.0619C193 13.1963 192.02 12.7616 190.687 12.7616C189.594 12.7616 188.552 13.0054 187.561 13.4892C186.57 13.9749 185.7 14.6515 184.949 15.517C184.196 16.3826 183.608 17.405 183.181 18.5824C182.753 19.7616 182.54 21.0429 182.54 22.4282V33.8107C182.54 34.011 182.7 34.1736 182.9 34.1736H186.127C186.324 34.1736 186.486 34.338 186.486 34.5383C186.486 34.6385 186.445 34.7292 186.38 34.7953C186.315 34.8615 186.225 34.9011 186.127 34.9011H174.548C174.35 34.9011 174.19 34.7386 174.19 34.5383C174.19 34.4381 174.231 34.3474 174.294 34.2813C174.359 34.2151 174.449 34.1736 174.548 34.1736H177.776C177.974 34.1736 178.134 34.011 178.134 33.8107V13.6971C178.134 13.4968 177.974 13.3343 177.776 13.3343H174.548C174.35 13.3343 174.19 13.1717 174.19 12.9695C174.19 12.8694 174.231 12.7787 174.294 12.7125C174.359 12.6483 174.449 12.6067 174.548 12.6067H182.08C182.277 12.6067 182.438 12.7692 182.438 12.9695V18.1666H182.54C182.745 17.7168 183.043 17.1461 183.436 16.4525C183.829 15.7589 184.368 15.0843 185.052 14.4247C185.733 13.767 186.589 13.2039 187.613 12.7371C188.638 12.2684 189.884 12.0341 191.353 12.0341C193.607 12.0341 195.442 12.5897 196.86 13.6971C198.278 14.8065 198.987 16.5735 198.987 18.9981V33.8107C198.987 34.011 199.148 34.1736 199.345 34.1736H202.574Z" fill="black"/>
<path d="M172.96 34.1736C173.158 34.1736 173.318 34.338 173.318 34.5383C173.318 34.6385 173.277 34.7292 173.214 34.7953C173.148 34.8615 173.059 34.9012 172.96 34.9012H165.43C165.23 34.9012 165.07 34.7386 165.07 34.5383V29.6531H164.968C164.66 30.3466 164.293 31.0478 163.866 31.7583C163.438 32.4689 162.909 33.1096 162.277 33.6803C161.646 34.2529 160.912 34.7197 160.075 35.0845C159.237 35.4473 158.257 35.6287 157.13 35.6287C155.762 35.6287 154.652 35.4738 153.798 35.162C152.945 34.8501 152.278 34.5213 151.799 34.1736C151.561 34.0016 151.296 33.7843 151.006 33.5254C150.715 33.2646 150.45 32.9093 150.212 32.4595C149.973 32.0097 149.769 31.4295 149.597 30.7189C149.426 30.0084 149.342 29.1334 149.342 28.0939V13.6971C149.342 13.4968 149.18 13.3343 148.982 13.3343H145.754C145.556 13.3343 145.396 13.1718 145.396 12.9695C145.396 12.8694 145.435 12.7787 145.5 12.7125C145.565 12.6483 145.655 12.6067 145.754 12.6067H153.388C153.586 12.6067 153.746 12.7692 153.746 12.9695V28.5607C153.746 29.4622 153.806 30.2937 153.927 31.0553C154.046 31.8188 154.277 32.4859 154.618 33.0567C154.959 33.6293 155.404 34.0791 155.95 34.4079C156.496 34.7386 157.213 34.9012 158.102 34.9012C158.853 34.9012 159.63 34.6763 160.433 34.2265C161.236 33.7767 161.97 33.1342 162.637 32.3026C163.302 31.4711 163.857 30.477 164.302 29.3148C164.746 28.1544 164.968 26.8466 164.968 25.3915V13.6971C164.968 13.4968 164.807 13.3343 164.61 13.3343H161.431C161.234 13.3343 161.074 13.1718 161.074 12.9695C161.074 12.8694 161.115 12.7787 161.178 12.7125C161.243 12.6483 161.333 12.6067 161.431 12.6067H169.016C169.214 12.6067 169.374 12.7692 169.374 12.9695V33.8107C169.374 34.011 169.534 34.1736 169.731 34.1736H172.96Z" fill="black"/>
<path d="M163.287 8.13533C164.779 8.13533 165.989 6.90847 165.989 5.39506C165.989 3.88165 164.779 2.65479 163.287 2.65479C161.795 2.65479 160.586 3.88165 160.586 5.39506C160.586 6.90847 161.795 8.13533 163.287 8.13533Z" fill="black"/>
<path d="M153.785 8.13533C155.277 8.13533 156.487 6.90847 156.487 5.39506C156.487 3.88165 155.277 2.65479 153.785 2.65479C152.293 2.65479 151.084 3.88165 151.084 5.39506C151.084 6.90847 152.293 8.13533 153.785 8.13533Z" fill="black"/>
<path d="M146.108 22.6739V22.7703C146.108 22.9233 145.985 23.0462 145.834 23.0462H142.713C142.562 23.0462 142.048 23.0065 142.048 23.1596L142.067 32.9452C142.067 33.0983 141.945 33.223 141.795 33.223H141.629C141.558 33.223 141.489 33.1927 141.437 33.1417C141.137 32.845 141.262 33.017 141.064 32.9036C140.852 32.7789 140.515 32.7165 140.056 32.7165C139.507 32.7165 138.95 32.8639 138.383 33.1587C137.819 33.4535 137.161 33.7862 136.414 34.1584C135.665 34.5307 134.786 34.8634 133.778 35.1582C132.77 35.4511 131.548 35.5985 130.111 35.5985C127.941 35.5985 126.016 35.2338 124.336 34.5062C122.655 33.7786 121.036 32.6239 119.478 31.044C117.951 29.4943 116.682 27.665 115.674 25.5578C114.666 23.4506 114.161 21.0789 114.161 18.4444C114.161 16.6774 114.361 15.0899 114.757 13.6801C115.154 12.2684 115.635 11.0381 116.201 9.98359C116.766 8.92906 117.347 8.04651 117.943 7.33404C118.54 6.62157 119.035 6.06217 119.432 5.65964C120.807 4.26493 122.381 3.13481 124.153 2.26548C125.925 1.39804 127.941 0.963379 130.202 0.963379C131.363 0.963379 132.319 1.05787 133.068 1.24308C133.815 1.42828 134.465 1.63805 135.015 1.8705C135.566 2.10295 136.062 2.31273 136.505 2.49793C136.947 2.68502 137.444 2.77763 137.994 2.77763C138.605 2.77763 139.041 2.69258 139.3 2.5225C139.531 2.37131 139.756 2.16343 139.974 1.90074C140.026 1.83838 140.103 1.80058 140.185 1.80058H140.472C140.623 1.80058 140.744 1.92531 140.744 2.07839V10.8227C140.744 10.9758 140.623 11.0986 140.472 11.0986C140.338 11.0986 140.226 11.0022 140.203 10.868C140.073 10.114 139.848 9.24656 139.529 8.26384C139.179 7.17907 138.627 6.13966 137.88 5.14749C137.131 4.15721 136.138 3.32001 134.901 2.63778C133.664 1.95555 132.082 1.61537 130.158 1.61537C127.866 1.61537 126.024 2.10295 124.634 3.08C123.244 4.05516 122.159 5.34214 121.381 6.93906C120.602 8.53409 120.082 10.3408 119.821 12.3535C119.562 14.3699 119.432 16.3996 119.432 18.4444C119.432 19.8391 119.493 21.2338 119.616 22.6285C119.737 24.0232 119.944 25.3405 120.235 26.5802C120.524 27.8199 120.93 28.9671 121.45 30.0197C121.968 31.0742 122.64 31.9738 123.465 32.7165C124.382 33.5537 125.329 34.1358 126.307 34.4608C127.285 34.7859 128.554 34.9484 130.111 34.9484C131.058 34.9484 132.006 34.7859 132.952 34.4608C133.899 34.1358 134.748 33.6463 135.497 32.9962C136.244 32.3442 136.855 31.5165 137.331 30.5092C137.804 29.5019 138.04 28.317 138.04 26.9525V23.324C138.04 23.1709 137.917 23.0462 137.767 23.0462H132.401C132.25 23.0462 132.127 22.9233 132.127 22.7703V22.6739C132.127 22.5208 132.25 22.3961 132.401 22.3961L144.96 21.6628C145.167 21.6515 145.366 21.729 145.511 21.8783C145.776 22.1466 146.108 22.5699 146.108 22.6739Z" fill="black"/>
<path d="M83.1298 34.2454C83.3086 34.2454 83.4539 34.3928 83.4539 34.5743C83.4539 34.7557 83.3086 34.9012 83.1298 34.9012H72.6872C72.5083 34.9012 72.3649 34.7557 72.3649 34.5743C72.3649 34.3928 72.5083 34.2454 72.6872 34.2454H75.5992C75.778 34.2454 75.9215 34.098 75.9215 33.9185V2.09356C75.9215 1.91402 75.778 1.76661 75.5992 1.76661H72.6872C72.5083 1.76661 72.3649 1.61921 72.3649 1.43778C72.3649 1.25636 72.5083 1.11084 72.6872 1.11084H79.5731C79.7501 1.11084 79.8955 1.25636 79.8955 1.43778V33.9185C79.8955 34.098 80.0408 34.2454 80.2196 34.2454H83.1298Z" fill="black"/>
<path d="M70.9173 34.1736C71.1147 34.1736 71.2768 34.338 71.2768 34.5383C71.2768 34.6385 71.2358 34.7292 71.1706 34.7953C71.1054 34.8615 71.016 34.9012 70.9173 34.9012H59.3382C59.1407 34.9012 58.9805 34.7386 58.9805 34.5383C58.9805 34.4381 59.0215 34.3474 59.0848 34.2813C59.15 34.2151 59.2394 34.1736 59.3382 34.1736H62.5669C62.7644 34.1736 62.9246 34.011 62.9246 33.8107V13.6971C62.9246 13.4968 62.7644 13.3343 62.5669 13.3343H59.3382C59.1407 13.3343 58.9805 13.1718 58.9805 12.9695C58.9805 12.8694 59.0215 12.7787 59.0848 12.7125C59.15 12.6483 59.2394 12.6067 59.3382 12.6067H66.9731C67.1706 12.6067 67.3308 12.7692 67.3308 12.9695V33.8107C67.3308 34.011 67.491 34.1736 67.6904 34.1736H70.9173Z" fill="black"/>
<path d="M64.5436 8.13533C66.0356 8.13533 67.2451 6.90847 67.2451 5.39506C67.2451 3.88165 66.0356 2.65479 64.5436 2.65479C63.0517 2.65479 61.8422 3.88165 61.8422 5.39506C61.8422 6.90847 63.0517 8.13533 64.5436 8.13533Z" fill="black"/>
<path d="M57.8533 30.685C58.0303 30.7492 58.129 30.9382 58.0806 31.1215C57.9837 31.4863 57.8551 31.8794 57.6986 32.3027C57.4937 32.8583 57.1789 33.3875 56.7522 33.8883C56.3237 34.391 55.7685 34.8067 55.0866 35.1356C54.4029 35.4644 53.5496 35.6288 52.5249 35.6288C49.9631 35.6288 48.1783 35.1261 47.1704 34.1226C46.1624 33.1172 45.6594 31.6979 45.6594 29.861V13.6972C45.6594 13.4969 45.4992 13.3343 45.2998 13.3343H42.073C41.8736 13.3343 41.7134 13.1718 41.7134 12.9696C41.7134 12.8694 41.7544 12.7787 41.8177 12.7126C41.8829 12.6483 41.9742 12.6067 42.073 12.6067H45.2998C45.4992 12.6067 45.6594 12.4442 45.6594 12.242V6.2342C45.6594 6.04521 45.801 5.88836 45.9836 5.87135L49.6725 4.95667C49.883 4.93777 50.0656 5.10407 50.0656 5.31951V12.242C50.0656 12.4442 50.2258 12.6067 50.4233 12.6067H56.9814C57.1807 12.6067 57.3409 12.7693 57.3409 12.9696C57.3409 13.0716 57.2999 13.1624 57.2366 13.2285C57.1714 13.2946 57.0801 13.3343 56.9814 13.3343H50.4233C50.2258 13.3343 50.0656 13.4969 50.0656 13.6972V30.3278C50.0656 31.2992 50.1587 32.0872 50.3469 32.6939C50.5351 33.3005 50.7829 33.7673 51.0903 34.0961C51.3977 34.4269 51.7312 34.6423 52.0889 34.7462C52.4485 34.8502 52.7969 34.9012 53.1397 34.9012C54.3339 34.9012 55.299 34.4609 56.0349 33.5764C56.6833 32.7959 57.1248 31.9153 57.3596 30.9325C57.4099 30.7228 57.6279 30.6037 57.8272 30.6755L57.8533 30.685Z" fill="black"/>
<path d="M42.0729 34.1736C42.2704 34.1736 42.4325 34.338 42.4325 34.5383C42.4325 34.6385 42.3915 34.7292 42.3263 34.7953C42.2611 34.8615 42.1716 34.9012 42.0729 34.9012H30.4938C30.2963 34.9012 30.1361 34.7386 30.1361 34.5383V34.1736H33.7225C33.92 34.1736 34.0803 34.011 34.0803 33.8107V13.6971C34.0803 13.4968 33.92 13.3343 33.7225 13.3343H30.4938C30.2963 13.3343 30.1361 13.1718 30.1361 12.9695C30.1361 12.8694 30.1771 12.7787 30.2404 12.7125C30.3056 12.6483 30.3951 12.6067 30.4938 12.6067H38.1287C38.3262 12.6067 38.4865 12.7692 38.4865 12.9695V33.8107C38.4865 34.011 38.6467 34.1736 38.846 34.1736H42.0729Z" fill="black"/>
<path d="M35.6658 8.13533C37.1578 8.13533 38.3673 6.90847 38.3673 5.39506C38.3673 3.88165 37.1578 2.65479 35.6658 2.65479C34.1738 2.65479 32.9644 3.88165 32.9644 5.39506C32.9644 6.90847 34.1738 8.13533 35.6658 8.13533Z" fill="black"/>
<path d="M27.2949 25.2762V34.6158C27.2949 34.7727 27.1682 34.9012 27.0117 34.9012H26.7323C26.6522 34.9012 26.5795 34.8671 26.5255 34.8086C26.3317 34.5988 26.1156 34.4041 25.8753 34.2284C25.5995 34.0262 25.171 33.926 24.5916 33.926C24.1333 33.926 23.6358 34.011 23.1011 34.1811C22.5664 34.3512 21.9553 34.5459 21.2679 34.7632C20.5804 34.9786 19.8091 35.1733 18.9539 35.3434C18.0987 35.5135 17.1504 35.5985 16.1127 35.5985C15.9897 35.5985 15.8835 35.5834 15.7922 35.5532L13.3162 38.25L13.4094 38.3426L13.5454 38.8075C13.333 38.902 13.1392 39.0078 12.9641 39.1212C12.8747 39.1798 12.7591 39.1684 12.6883 39.0909L12.3083 38.6771C12.2319 38.5939 12.2319 38.4635 12.3101 38.3804L14.9669 35.5532C13.2249 35.4284 11.5519 35.0108 9.94775 34.2983C8.34363 33.5858 6.80845 32.5011 5.3422 31.044C3.84428 29.5246 2.59229 27.7273 1.58436 25.6504C0.576429 23.5734 0.0715332 21.1715 0.0715332 18.4444C0.0715332 15.3753 0.658405 12.7106 1.83587 10.4485C3.01148 8.18635 4.59324 6.21714 6.57929 4.54463C7.98405 3.36726 9.4354 2.47525 10.9333 1.8705C12.4294 1.26575 14.2627 0.963379 16.4331 0.963379C17.3796 0.963379 18.2217 1.05787 18.9539 1.24308C19.688 1.42828 20.3438 1.63805 20.925 1.8705C21.5045 2.10295 22.0392 2.31273 22.5292 2.49793C23.0173 2.68502 23.4924 2.77763 23.9507 2.77763C24.5599 2.77763 24.9959 2.67747 25.2567 2.47525C25.4821 2.2995 25.6908 2.10673 25.8827 1.89507C25.9367 1.83649 26.0113 1.80058 26.0914 1.80058H26.3708C26.5273 1.80058 26.654 1.92909 26.654 2.08784V10.8113C26.654 10.9701 26.5273 11.0986 26.3708 11.0986C26.2404 11.0986 26.1286 11.0098 26.0988 10.8813C25.8305 9.7776 25.4971 8.68905 25.0965 7.61184C24.668 6.4666 24.0718 5.44986 23.3079 4.56731C22.5441 3.68475 21.5734 2.97039 20.3978 2.42801C19.2203 1.88751 17.7634 1.61537 16.0214 1.61537C14.4005 1.61537 13.0107 1.8705 11.85 2.38265C10.6893 2.89291 9.71113 3.57514 8.91746 4.42746C8.12192 5.27978 7.48847 6.27194 7.01525 7.40396C6.54016 8.53409 6.18245 9.72847 5.93839 10.9833C5.69246 12.2382 5.53223 13.51 5.45585 14.7951C5.37946 16.0821 5.3422 17.2973 5.3422 18.4444C5.3422 21.6987 5.60117 24.3955 6.12097 26.5329C6.64077 28.6722 7.36551 30.3618 8.29892 31.6015C9.23046 32.8412 10.352 33.7087 11.6674 34.2038C12.9808 34.7008 14.4322 34.9484 16.0214 34.9484C18.0671 34.9484 19.7178 34.6536 20.9716 34.0659C22.2236 33.4762 23.2315 32.7089 23.9954 31.764C24.7593 30.8191 25.3406 29.7495 25.7374 28.5551C26.1081 27.4401 26.4398 26.3307 26.7323 25.2271C26.7677 25.0929 26.8869 25.0003 27.0229 25.0003C27.1738 25.0003 27.2949 25.1231 27.2949 25.2762Z" fill="black"/>
<path d="M19.4122 41.7367C19.4122 43.1314 18.9316 44.2162 17.9683 44.991C17.007 45.764 15.8835 46.1533 14.5999 46.1533C13.8975 46.1533 13.2398 46.0134 12.6287 45.7337C12.1332 45.5088 11.6991 45.2518 11.3246 44.9646C11.1793 44.8531 11.1439 44.6471 11.2445 44.4921C11.3115 44.3919 11.4196 44.3371 11.5295 44.3371C11.5929 44.3371 11.6599 44.356 11.7177 44.3957C11.9953 44.5828 12.3139 44.7718 12.6753 44.9664C13.1634 45.2291 13.7596 45.3614 14.462 45.3614C14.9501 45.3614 15.3488 45.2461 15.6544 45.0137C15.9599 44.7812 16.1965 44.494 16.3642 44.1538C16.5319 43.8117 16.6474 43.4243 16.7089 42.9916C16.7685 42.5569 16.8002 42.1222 16.8002 41.6895C16.8002 40.8825 16.6549 40.17 16.3642 39.5502C16.0736 38.9303 15.5016 38.6204 14.6465 38.6204C14.1881 38.6204 13.8211 38.6827 13.5454 38.8074L13.4094 38.3425C13.6534 38.1555 13.959 38.0005 14.326 37.8776C14.6912 37.7529 15.1346 37.6906 15.6544 37.6906C15.8985 37.6906 16.2264 37.7454 16.64 37.8531C17.0517 37.9627 17.4653 38.163 17.877 38.4578C18.2888 38.7526 18.6484 39.1627 18.9539 39.69C19.2595 40.2173 19.4122 40.8995 19.4122 41.7367Z" fill="black"/>
</svg>
