<svg width="63" height="26" viewBox="0 0 63 26" fill="none" xmlns="http://www.w3.org/2000/svg">
<rect x="1" y="1" width="61" height="24" rx="12" fill="#CBD0E9" stroke="black"/>
<rect x="9.52689" y="4.24329" width="43.9462" height="17.5135" rx="8.75676" fill="#7F7F7F" stroke="#C5C1C1"/>
<path d="M15.4301 16.5676V8.78381H20.162V9.83331H17.0178V12.1182H19.7573V13.1677H17.0178V15.4525H20.162V16.5676H15.4301Z" fill="#C1C1C1"/>
<path d="M21.1289 16.5676V8.78381H22.6544L25.0515 13.4738H25.0826V8.78381H26.6703V16.5676H25.176L22.7478 11.8886H22.7166V16.5676H21.1289Z" fill="#C1C1C1"/>
<path d="M37.7475 16.5676V9.83331H35.9108V8.78381H41.172V9.83331H39.3352V16.5676H37.7475Z" fill="#C1C1C1"/>
<path d="M43.4606 9.83331V12.2603H44.3634C44.6436 12.2603 44.8667 12.2348 45.0327 12.1838C45.1987 12.1254 45.3285 12.0453 45.4219 11.9432C45.5049 11.8412 45.5619 11.7173 45.5931 11.5715C45.6242 11.4185 45.6398 11.2436 45.6398 11.0468C45.6398 10.85 45.6242 10.6787 45.5931 10.533C45.5619 10.3799 45.4997 10.2487 45.4063 10.1394C45.2091 9.93535 44.8355 9.83331 44.2856 9.83331H43.4606ZM41.8729 16.5676V8.78381H44.4257C46.2935 8.78381 47.2275 9.54543 47.2275 11.0687C47.2275 11.5278 47.1237 11.9177 46.9161 12.2384C46.719 12.5591 46.3662 12.8178 45.8577 13.0146L47.5699 16.5676H45.8888L44.4101 13.2442H43.4606V16.5676H41.8729Z" fill="#C1C1C1"/>
<rect x="8.87097" y="3.5946" width="19.0215" height="18.8108" rx="9.40541" fill="#D9D9D9" stroke="black" stroke-width="2"/>
<mask id="mask0_40_942" style="mask-type:alpha" maskUnits="userSpaceOnUse" x="8" y="3" width="20" height="20">
<rect x="8.87097" y="3.5946" width="19.0215" height="18.8108" rx="9.40541" fill="#D9D9D9"/>
</mask>
<g mask="url(#mask0_40_942)">
<rect x="2" y="-7" width="92" height="52" fill="#A63E3E"/>
<path d="M7.55914 2.62158H29.2043V24.027H7.55914V2.62158Z" fill="#202D4A"/>
<path d="M29.2043 2.62158V5.29726L21.1719 13.3243L29.2043 21.1423V24.027H26.3718L18.2972 16.1672L10.4339 24.027H7.55914V21.1841L15.4224 13.3661L7.55914 5.71533V2.62158H10.1802L18.2972 10.4814L26.1605 2.62158H29.2043Z" fill="white"/>
<path d="M15.3379 16.1672L15.8029 17.5886L9.33472 24.027H7.55914V23.9016L15.3379 16.1672ZM20.5801 15.6655L22.8629 16L29.2043 22.1457V24.027L20.5801 15.6655ZM29.2043 2.62158L21.0874 10.8158L20.9183 8.97631L27.2596 2.62158H29.2043ZM7.55914 2.66339L15.7184 10.565L13.2241 10.2305L7.55914 4.67015V2.66339Z" fill="#97414F"/>
<path d="M14.9997 2.62158V24.027H21.7638V2.62158H14.9997ZM7.55914 9.97969V16.6689H29.2043V9.97969H7.55914Z" fill="white"/>
<path d="M7.55914 11.3175V15.331H29.2043V11.3175H7.55914ZM16.3525 2.62158V24.027H20.411V2.62158H16.3525Z" fill="#97414F"/>
</g>
</svg>
